<svg xmlns="http://www.w3.org/2000/svg" viewBox="0 0 393.43 454.3"><defs><style>.cls-1{fill:#fff;}</style></defs><polygon class="cls-1" points="393.43 113.58 393.43 158.93 393.28 159.02 393.43 159.11 393.43 181.71 373.71 170.32 354.14 159.02 354 158.94 354 136.35 334.43 125.05 334.43 124.88 334.28 124.96 314.71 113.66 295 102.28 275.43 90.98 275.43 90.81 275.28 90.9 275.43 90.98 275.43 158.94 275.29 159.02 275.43 159.11 275.43 227.06 275.28 227.15 275.43 227.24 275.43 295.19 275.29 295.28 275.43 295.36 275.43 363.32 275.28 363.4 275.43 363.49 275.43 363.32 295 352.02 314.71 340.64 334.28 329.34 334.43 329.42 334.43 329.25 354 317.95 373.71 306.58 354.14 295.28 354 295.2 334.43 283.9 314.71 272.52 295.14 261.22 314.71 249.92 334.28 261.22 334.43 261.3 354 272.6 373.71 283.98 393.28 295.28 393.43 295.37 393.43 340.72 373.71 352.1 354.14 363.4 354 363.32 354 363.49 334.43 374.79 314.71 386.17 295.14 397.47 295 397.39 295 397.55 275.43 408.85 255.72 420.23 236.14 431.53 236 431.45 236 363.48 236.14 363.4 236 363.32 236 295.36 236.14 295.28 236 295.19 236 227.23 236.14 227.15 236 227.07 236 159.11 236.14 159.02 236 158.94 236 90.98 236.14 90.9 236 90.82 236 22.85 236.14 22.77 255.72 34.07 275.43 45.45 295 56.75 295 56.91 295.14 56.83 314.71 68.13 334.43 79.51 354 90.81 354 90.98 354.14 90.9 373.71 102.2 393.43 113.58"/><polygon class="cls-1" points="157.43 22.86 157.43 90.81 157.29 90.9 157.43 90.98 157.43 158.94 157.28 159.02 157.43 159.11 157.43 227.07 157.29 227.15 157.43 227.23 157.43 295.19 157.28 295.28 157.43 295.36 157.43 363.32 157.29 363.4 157.43 363.49 157.43 431.44 157.28 431.53 137.71 420.23 118 408.85 98.43 397.55 98.43 397.39 98.29 397.47 78.71 386.17 59 374.79 39.43 363.49 39.43 363.32 39.28 363.4 19.71 352.1 0 340.72 0 295.36 0.15 295.28 19.72 283.98 39.43 272.6 59 261.3 59.14 261.22 78.71 249.92 98.29 261.22 78.71 272.52 59 283.9 39.43 295.2 39.29 295.28 19.72 306.58 39.43 317.96 59 329.26 59 329.42 59.14 329.34 78.71 340.64 98.43 352.02 118 363.32 118 363.49 118.15 363.4 118 363.32 118 295.36 118.14 295.28 118 295.2 118 227.23 118.15 227.15 118 227.07 118 159.1 118.14 159.02 118 158.94 118 90.98 118.15 90.9 118 90.81 118 90.98 98.43 102.28 78.71 113.66 59.14 124.96 59 124.88 59 125.04 39.43 136.34 39.43 158.94 39.29 159.02 19.72 170.32 0 181.71 0 159.11 0.15 159.02 0 158.94 0 113.58 19.71 102.2 39.28 90.9 39.43 90.98 39.43 90.81 59 79.51 78.71 68.13 98.29 56.83 98.43 56.91 98.43 56.75 118 45.45 137.71 34.07 157.28 22.77 157.43 22.86"/><polygon class="cls-1" points="216.43 11.39 216.43 56.75 216.28 56.83 216.43 56.92 216.43 124.87 216.28 124.96 216.43 125.04 216.43 193 216.28 193.09 216.43 193.17 216.43 261.13 216.28 261.21 216.43 261.3 216.43 329.26 216.28 329.34 216.43 329.43 216.43 397.38 216.28 397.47 216.43 397.55 216.43 442.91 196.71 454.3 177 442.92 177 397.55 177.14 397.46 177 397.38 177 329.42 177.14 329.34 177 329.26 177 261.29 177.14 261.21 177 261.13 177 193.17 177.14 193.09 177 193.01 177 125.04 177.14 124.96 177 124.88 177 56.92 177.14 56.84 177 56.75 177 11.38 196.71 0 216.43 11.39"/></svg>