<svg id="light" xmlns="http://www.w3.org/2000/svg" viewBox="0 0 393.93 454.88"><defs><style>.cls-1{stroke:#ff3590;stroke-miterlimit:10;stroke-width:0.5px;}</style></defs><polygon class="cls-1" points="393.68 113.87 393.68 159.22 393.53 159.31 393.68 159.4 393.68 182 373.96 170.61 354.39 159.31 354.25 159.23 354.25 136.64 334.68 125.34 334.68 125.17 334.53 125.25 314.96 113.95 295.25 102.57 275.68 91.27 275.68 91.1 275.53 91.19 275.68 91.27 275.68 159.23 275.54 159.31 275.68 159.4 275.68 227.35 275.53 227.44 275.68 227.53 275.68 295.48 275.54 295.57 275.68 295.65 275.68 363.61 275.53 363.69 275.68 363.78 275.68 363.61 295.25 352.31 314.96 340.93 334.53 329.63 334.68 329.71 334.68 329.54 354.25 318.24 373.96 306.87 354.39 295.57 354.25 295.49 334.68 284.19 314.96 272.81 295.39 261.51 314.96 250.21 334.53 261.51 334.68 261.59 354.25 272.89 373.96 284.27 393.53 295.57 393.68 295.66 393.68 341.01 373.96 352.39 354.39 363.69 354.25 363.61 354.25 363.78 334.68 375.08 314.96 386.46 295.39 397.76 295.25 397.68 295.25 397.84 275.68 409.14 255.97 420.52 236.39 431.82 236.25 431.74 236.25 363.77 236.39 363.69 236.25 363.61 236.25 295.65 236.39 295.57 236.25 295.48 236.25 227.52 236.39 227.44 236.25 227.36 236.25 159.4 236.39 159.31 236.25 159.23 236.25 91.27 236.39 91.19 236.25 91.11 236.25 23.14 236.39 23.06 255.97 34.36 275.68 45.74 295.25 57.04 295.25 57.2 295.39 57.12 314.96 68.42 334.68 79.8 354.25 91.1 354.25 91.27 354.39 91.19 373.96 102.49 393.68 113.87"/><polygon class="cls-1" points="157.68 23.15 157.68 91.1 157.54 91.19 157.68 91.27 157.68 159.23 157.53 159.31 157.68 159.4 157.68 227.36 157.54 227.44 157.68 227.52 157.68 295.48 157.53 295.57 157.68 295.65 157.68 363.61 157.54 363.69 157.68 363.78 157.68 431.73 157.53 431.82 137.96 420.52 118.25 409.14 98.68 397.84 98.68 397.68 98.54 397.76 78.96 386.46 59.25 375.08 39.68 363.78 39.68 363.61 39.53 363.69 19.96 352.39 0.25 341.01 0.25 295.65 0.4 295.57 19.97 284.27 39.68 272.89 59.25 261.59 59.39 261.51 78.96 250.21 98.54 261.51 78.96 272.81 59.25 284.19 39.68 295.49 39.54 295.57 19.97 306.87 39.68 318.25 59.25 329.55 59.25 329.71 59.39 329.63 78.96 340.93 98.68 352.31 118.25 363.61 118.25 363.78 118.4 363.69 118.25 363.61 118.25 295.65 118.39 295.57 118.25 295.49 118.25 227.52 118.4 227.44 118.25 227.36 118.25 159.39 118.39 159.31 118.25 159.23 118.25 91.27 118.4 91.19 118.25 91.1 118.25 91.27 98.68 102.57 78.96 113.95 59.39 125.25 59.25 125.17 59.25 125.33 39.68 136.63 39.68 159.23 39.54 159.31 19.97 170.61 0.25 182 0.25 159.4 0.4 159.31 0.25 159.23 0.25 113.87 19.96 102.49 39.53 91.19 39.68 91.27 39.68 91.1 59.25 79.8 78.96 68.42 98.54 57.12 98.68 57.2 98.68 57.04 118.25 45.74 137.96 34.36 157.53 23.06 157.68 23.15"/><polygon class="cls-1" points="216.68 11.68 216.68 57.04 216.53 57.12 216.68 57.21 216.68 125.16 216.53 125.25 216.68 125.33 216.68 193.29 216.53 193.38 216.68 193.46 216.68 261.42 216.53 261.5 216.68 261.59 216.68 329.55 216.53 329.63 216.68 329.72 216.68 397.67 216.53 397.76 216.68 397.84 216.68 443.2 196.96 454.59 177.25 443.21 177.25 397.84 177.39 397.75 177.25 397.67 177.25 329.71 177.39 329.63 177.25 329.55 177.25 261.58 177.39 261.5 177.25 261.42 177.25 193.46 177.39 193.38 177.25 193.3 177.25 125.33 177.39 125.25 177.25 125.17 177.25 57.21 177.39 57.13 177.25 57.04 177.25 11.67 196.96 0.29 216.68 11.68"/></svg>